<svg width="294" height="71" viewBox="0 0 294 71" fill="none" xmlns="http://www.w3.org/2000/svg">
<path d="M0.52 1.8V69H43.912V63.72H9.256V35.592H39.016V31.176H9.256V7.08H43.912V1.8H0.52ZM97.054 1.8H88.894V28.872H88.51C87.87 27.208 87.006 25.832 85.918 24.744C84.894 23.592 83.71 22.664 82.366 21.96C81.022 21.256 79.582 20.744 78.046 20.424C76.574 20.104 75.07 19.944 73.534 19.944C70.334 19.944 67.39 20.552 64.702 21.768C62.014 22.92 59.678 24.584 57.694 26.76C55.774 28.936 54.27 31.56 53.182 34.632C52.094 37.704 51.55 41.128 51.55 44.904C51.55 48.744 52.094 52.232 53.182 55.368C54.27 58.44 55.774 61.096 57.694 63.336C59.678 65.512 62.014 67.208 64.702 68.424C67.39 69.576 70.334 70.152 73.534 70.152C81.086 70.152 86.078 67.176 88.51 61.224H88.894V69H97.054V1.8ZM88.894 49.8C88.894 51.912 88.542 53.928 87.838 55.848C87.134 57.704 86.174 59.336 84.958 60.744C83.806 62.088 82.398 63.176 80.734 64.008C79.134 64.776 77.406 65.16 75.55 65.16C73.502 65.16 71.582 64.808 69.79 64.104C67.998 63.336 66.43 62.152 65.086 60.552C63.742 58.952 62.654 56.872 61.822 54.312C61.054 51.752 60.67 48.68 60.67 45.096C60.67 41.448 61.054 38.344 61.822 35.784C62.654 33.224 63.742 31.144 65.086 29.544C66.494 27.88 68.094 26.696 69.886 25.992C71.678 25.224 73.566 24.84 75.55 24.84C77.342 24.84 79.038 25.224 80.638 25.992C82.238 26.696 83.646 27.784 84.862 29.256C86.078 30.664 87.038 32.392 87.742 34.44C88.51 36.488 88.894 38.824 88.894 41.448V49.8ZM115.44 21V69H123.6V21H115.44ZM114.288 5.832C114.288 7.24 114.8 8.456 115.824 9.48C116.848 10.504 118.064 11.016 119.472 11.016C120.88 11.016 122.096 10.504 123.12 9.48C124.144 8.456 124.656 7.24 124.656 5.832C124.656 4.424 124.144 3.208 123.12 2.184C122.096 1.16 120.88 0.647999 119.472 0.647999C118.064 0.647999 116.848 1.16 115.824 2.184C114.8 3.208 114.288 4.424 114.288 5.832ZM137.099 24.84V21H145.451V6.216H153.611V21H165.227V24.84H153.611V56.712C153.611 57.48 153.643 58.376 153.707 59.4C153.771 60.36 153.963 61.288 154.283 62.184C154.603 63.016 155.083 63.72 155.723 64.296C156.427 64.872 157.387 65.16 158.603 65.16C160.139 65.16 161.419 64.584 162.443 63.432C163.467 62.28 164.299 61.032 164.939 59.688L169.451 64.296C166.315 67.432 162.763 69 158.795 69C157.131 69 155.499 68.712 153.899 68.136C152.299 67.56 150.859 66.696 149.579 65.544C148.363 64.328 147.371 62.792 146.603 60.936C145.835 59.08 145.451 56.904 145.451 54.408V24.84H137.099ZM224.747 45.096C224.747 48.424 224.171 51.624 223.019 54.696C221.867 57.704 220.203 60.36 218.027 62.664C215.915 64.968 213.323 66.792 210.251 68.136C207.243 69.48 203.851 70.152 200.075 70.152C196.235 70.152 192.747 69.48 189.611 68.136C186.539 66.728 183.915 64.872 181.739 62.568C179.627 60.264 177.963 57.608 176.747 54.6C175.595 51.528 175.019 48.36 175.019 45.096C175.019 41.768 175.595 38.6 176.747 35.592C177.963 32.52 179.627 29.832 181.739 27.528C183.915 25.224 186.539 23.4 189.611 22.056C192.747 20.648 196.235 19.944 200.075 19.944C203.851 19.944 207.243 20.648 210.251 22.056C213.323 23.4 215.915 25.224 218.027 27.528C220.203 29.832 221.867 32.52 223.019 35.592C224.171 38.6 224.747 41.768 224.747 45.096ZM215.627 45.096C215.627 40.616 215.147 37 214.187 34.248C213.227 31.432 211.979 29.256 210.443 27.72C208.907 26.184 207.211 25.16 205.355 24.648C203.499 24.072 201.707 23.784 199.979 23.784C198.251 23.784 196.459 24.072 194.603 24.648C192.747 25.16 191.019 26.184 189.419 27.72C187.883 29.256 186.603 31.432 185.579 34.248C184.619 37 184.139 40.616 184.139 45.096C184.139 49.512 184.619 53.128 185.579 55.944C186.603 58.696 187.883 60.84 189.419 62.376C191.019 63.912 192.747 64.968 194.603 65.544C196.459 66.056 198.251 66.312 199.979 66.312C201.707 66.312 203.499 66.056 205.355 65.544C207.211 64.968 208.907 63.912 210.443 62.376C211.979 60.84 213.227 58.696 214.187 55.944C215.147 53.128 215.627 49.512 215.627 45.096ZM237.243 21V69H245.403V40.008C245.403 37.384 245.691 35.176 246.267 33.384C246.907 31.528 247.707 30.024 248.667 28.872C249.627 27.72 250.683 26.888 251.835 26.376C252.987 25.864 254.107 25.608 255.195 25.608C256.667 25.608 258.011 26.088 259.227 27.048C260.507 28.008 261.435 28.904 262.011 29.736L265.275 23.784C264.699 23.016 263.995 22.376 263.163 21.864C262.395 21.352 261.595 20.968 260.763 20.712C259.995 20.392 259.259 20.2 258.555 20.136C257.915 20.008 257.435 19.944 257.115 19.944C254.427 19.944 252.187 20.68 250.395 22.152C248.603 23.624 247.131 25.8 245.979 28.68H245.403V21H237.243Z" fill="#222222"/>
<path d="M277.739 62.808C277.739 60.696 278.507 58.872 280.043 57.336C281.579 55.8 283.403 55.032 285.515 55.032C287.627 55.032 289.451 55.8 290.987 57.336C292.523 58.872 293.291 60.696 293.291 62.808C293.291 64.92 292.523 66.744 290.987 68.28C289.451 69.816 287.627 70.584 285.515 70.584C283.403 70.584 281.579 69.816 280.043 68.28C278.507 66.744 277.739 64.92 277.739 62.808Z" fill="#C98664"/>
</svg>
