<svg xmlns="http://www.w3.org/2000/svg" width="76" height="71"><path d="M58.74 62.81c0-2.11.77-3.94 2.3-5.47 1.54-1.54 3.36-2.31 5.47-2.31 2.12 0 3.94.77 5.48 2.31 1.53 1.53 2.3 3.36 2.3 5.47s-.77 3.93-2.3 5.47c-1.54 1.54-3.36 2.3-5.48 2.3-2.11 0-3.93-.76-5.47-2.3-1.53-1.54-2.3-3.36-2.3-5.47z" style="fill:#1d5d9b"/><g style="font-weight:500;font-size:77.3333px;font-family:Lora;-inkscape-font-specification:&quot;Lora Medium&quot;;fill:#222"><path d="M31.093 69.258q-7.888 0-13.843-3.402-5.955-3.403-9.203-9.512Q4.8 50.157 4.8 41.96q0-5.414 1.624-10.595 1.702-5.181 5.027-9.435 3.403-4.253 8.43-6.728 5.103-2.552 11.831-2.552 2.552 0 5.336.464 2.784.464 5.414 1.392 2.706.928 4.872 2.243l-.31-3.557h4.795v17.786h-3.557q-.387-4.64-2.63-7.81-2.165-3.248-5.645-4.872-3.403-1.702-7.579-1.702-4.098 0-7.501 1.856-3.325 1.779-5.8 5.027-2.475 3.17-3.867 7.501-1.314 4.331-1.314 9.28 0 7.115 2.32 12.683 2.397 5.49 6.728 8.661 4.33 3.171 10.13 3.171 1.856 0 4.022-.31 2.242-.386 4.408-1.082 2.242-.773 4.021-1.933V48.997q.077-1.933.077-3.557-1.237.077-2.784.154-1.546.078-2.706.155v-4.253h18.482v3.402q-1.856 0-3.016.851-1.082.85-1.624 2.165-.464 1.238-.618 2.707-.155 1.392-.155 2.63v12.063H51.2q-1.625 0-3.79.542-2.165.464-4.872 1.469-2.397.85-5.49 1.392-3.094.541-5.955.541z" aria-label="G" style="white-space:pre"/></g></svg>