<svg xmlns="http://www.w3.org/2000/svg" width="164.469" height="64.171" fill="none"><path fill="#1d5d9b" d="M148.917 54.613c0-2.112.768-3.936 2.304-5.472 1.536-1.536 3.36-2.304 5.472-2.304 2.112 0 3.936.768 5.472 2.304 1.536 1.536 2.304 3.36 2.304 5.472 0 2.112-.768 3.936-2.304 5.472-1.536 1.536-3.36 2.304-5.472 2.304-2.112 0-3.936-.768-5.472-2.304-1.536-1.536-2.304-3.36-2.304-5.472z"/><g aria-label="Gui" style="font-size:85.3333px;fill:#222"><path d="M29.014 64.17q-8.704 0-15.275-3.754Q7.169 56.66 3.584 49.92 0 43.093 0 34.048q0-5.974 1.792-11.691Q3.67 16.64 7.34 11.947q3.755-4.694 9.301-7.425 5.632-2.816 13.056-2.816 2.816 0 5.888.512t5.974 1.536q2.986 1.024 5.376 2.475l-.342-3.925h5.291V21.93h-3.925q-.427-5.12-2.902-8.618-2.389-3.584-6.229-5.376-3.755-1.878-8.363-1.878-4.522 0-8.277 2.048-3.67 1.963-6.4 5.547-2.73 3.499-4.267 8.277-1.45 4.779-1.45 10.24 0 7.851 2.56 13.995 2.645 6.059 7.424 9.557 4.778 3.499 11.178 3.499 2.048 0 4.438-.341 2.474-.427 4.864-1.195 2.474-.853 4.437-2.133V41.813q.085-2.133.085-3.925-1.365.085-3.072.17-1.706.086-2.986.171v-4.693h20.394v3.754q-2.048 0-3.328.939-1.194.939-1.792 2.39-.512 1.365-.682 2.986-.171 1.536-.171 2.901v13.312H51.2q-1.792 0-4.181.598-2.39.512-5.376 1.621-2.645.939-6.059 1.536-3.413.597-6.57.597zM82.688 64.17q-4.778 0-7.936-1.792-3.072-1.792-4.608-5.888-1.536-4.181-1.536-11.008V29.098q.086-1.621.342-3.157-1.451.085-3.072.17-1.622 0-2.902.086v-4.523h2.048q4.267 0 6.4-.768 2.134-.768 2.987-1.621h3.243v26.027q0 6.741 1.877 10.069 1.877 3.328 6.315 3.243 2.9 0 5.546-1.707 2.73-1.707 4.438-4.01V32.681q0-1.877.085-3.498.085-1.707.341-3.243-1.536.085-3.157.17-1.621 0-2.987.086v-4.523h2.475q3.755 0 5.888-.768t3.072-1.621h3.243l-.086 31.403q0 1.365-.085 3.754-.085 2.304-.256 4.096 1.45-.085 2.987-.17 1.62-.086 2.986-.086v4.523H96.768q-.17-1.365-.341-2.56-.085-1.195-.256-2.304-2.645 2.475-6.144 4.352-3.499 1.877-7.339 1.877zM116.31 59.221q2.56 0 3.583-1.195 1.024-1.194 1.195-3.328.256-2.133.256-4.949V32.085q0-1.45.085-2.901.086-1.536.256-3.243-1.45.085-3.072.17-1.621 0-2.986.086v-4.523q3.84 0 6.058-.341 2.304-.427 3.499-.939 1.28-.512 1.877-1.109h3.243v32.939q0 1.536-.085 3.157-.086 1.536-.256 3.157 1.365-.085 2.73-.085 1.451-.085 2.646-.17v4.522h-19.03zm9.045-47.787q-2.219 0-3.755-1.621-1.536-1.707-1.536-4.096 0-2.39 1.621-4.01Q123.307 0 125.355 0q2.218 0 3.669 1.706 1.536 1.622 1.536 4.011 0 2.39-1.536 4.096-1.45 1.621-3.67 1.621z" style="font-weight:500;font-family:Lora;-inkscape-font-specification:&quot;Lora Medium&quot;"/></g></svg>